<svg xmlns="http://www.w3.org/2000/svg" viewBox="0 0 200 200"><defs><linearGradient id="g" x1="0" y1="0" x2="1" y2="1"><stop stop-color="#f0d276"/><stop offset=".45" stop-color="#9f722b"/><stop offset="1" stop-color="#3e2b15"/></linearGradient><radialGradient id="f"><stop stop-color="#45613b"/><stop offset="1" stop-color="#10170e"/></radialGradient><filter id="s"><feDropShadow dx="0" dy="8" stdDeviation="7" flood-opacity=".65"/></filter></defs><g filter="url(#s)"><path d="M100 13 158 34 187 89 166 151 100 186 34 151 13 89 42 34Z" fill="url(#f)" stroke="url(#g)" stroke-width="10"/><path d="M100 29 148 47 169 92 151 139 100 168 49 139 31 92 52 47Z" fill="none" stroke="#d5a84f" stroke-width="2"/><path d="m100 29 28 43-28 38-28-38Zm0 81 51 29M100 110 49 139M128 72l41 20M72 72 31 92" fill="none" stroke="#665030" stroke-width="2"/></g></svg>